<svg xmlns="http://www.w3.org/2000/svg" viewBox="0 0 24 24" width="24" height="24" color="#000000" fill="none">
    <circle cx="12" cy="12" r="10" stroke="currentColor" stroke-width="1.5" />
    <path d="M9 8C9 7.44772 9 7.10536 9.22386 6.89464C9.44772 6.68421 9.78929 6.68421 10.2239 6.89464C10.4477 7.10536 10.4477 7.44772 10.4477 8V16C10.4477 16.5523 10.4477 16.8946 10.2239 17.1054C9.78929 17.3158 9.44772 17.3158 9.22386 17.1054C9 16.8946 9 16.5523 9 16V8Z" stroke="currentColor" stroke-width="1.5"/>
    <path d="M14 8C14 7.44772 14 7.10536 14.2239 6.89464C14.4477 6.68421 14.7893 6.68421 15.2239 6.89464C15.4477 7.10536 15.4477 7.44772 15.4477 8V16C15.4477 16.5523 15.4477 16.8946 15.2239 17.1054C14.7893 17.3158 14.4477 17.3158 14.2239 17.1054C14 16.8946 14 16.5523 14 16V8Z" stroke="currentColor" stroke-width="1.5"/>
</svg>
